<svg xmlns="http://www.w3.org/2000/svg" width="200" height="225" viewBox="0 0 200 225">
  <path fill="#1F72C2" d="M98.8508306,99.5692304 L93.2710963,106.439811 C93.2710963,106.439811 86.8594684,94.4757013 71.4222591,98.5030659 C71.4222591,98.5030659 100.278073,80.1423004 97.4282392,48.7512608 C94.5784053,17.3602212 71.4229236,1.25010031 69.8790698,0.302251189 C68.3352159,-0.645266518 46.9990033,22.9276749 24.9122924,28.9687217 C24.9122924,28.9687217 25.9136213,6.6989071 42.5249169,4.68522484 L42.5249169,1.84234031 C42.5249169,1.84234031 0.257807309,7.76507166 0.331893688,57.7541704 C0.331893688,57.7541704 1.9717608,101.290935 45.1398671,103.123333 C61.8830565,103.83422 61.9033223,103.83422 61.9033223,103.83422 C61.9033223,103.83422 76.044186,103.123333 78.8940199,122.905872 L81.0365449,124.682592 L99.9199336,100.635726 L98.8508306,99.5692304 Z M23.3900332,59.4122435 C23.2714286,47.2111717 24.2986711,31.8709296 24.2986711,31.8709296 L33.2225914,28.613444 L33.2225914,82.1559827 L27.623588,83.9327026 C27.623588,83.9330341 23.5089701,71.6133154 23.3900332,59.4122435 Z M63.7873754,99.9248396 C63.7873754,99.9248396 56.4727575,102.057169 45.3106312,100.51708 C34.148505,98.9769904 27.9986711,86.0060397 27.9986711,86.0060397 L54.4850498,79.0761358 L54.4850498,14.6356521 L63.7873754,23.6382303 L63.7873754,99.9248396 Z M65.7807309,26.0075217 C93.6877076,64.1504949 65.7807309,99.2139527 65.7807309,99.2139527 L65.7807309,26.0075217 Z" transform="translate(50 50)"/>
</svg>
